<svg width="10" height="19" viewBox="0 0 10 19" fill="none" xmlns="http://www.w3.org/2000/svg">
    <path fill-rule="evenodd" clip-rule="evenodd"
        d="M9.79021 18.3591C9.72387 18.4256 9.64507 18.4783 9.55831 18.5143C9.47156 18.5503 9.37855 18.5688 9.28462 18.5688C9.19069 18.5688 9.09768 18.5503 9.01093 18.5143C8.92417 18.4783 8.84537 18.4256 8.77903 18.3591L0.209794 9.78981C0.143292 9.72348 0.0905304 9.64468 0.0545311 9.55792C0.0185308 9.47116 0 9.37816 0 9.28423C0 9.1903 0.0185308 9.09729 0.0545311 9.01054C0.0905304 8.92378 0.143292 8.84498 0.209794 8.77864L8.77903 0.2094C8.91312 0.0753117 9.09499 -1.90735e-05 9.28462 -1.90735e-05C9.47425 -1.90735e-05 9.65612 0.0753117 9.79021 0.2094C9.9243 0.343491 9.99963 0.525354 9.99963 0.714987C9.99963 0.904617 9.9243 1.08648 9.79021 1.22057L1.72512 9.28423L9.79021 17.3479C9.85671 17.4142 9.90947 17.493 9.94547 17.5798C9.98147 17.6665 10 17.7595 10 17.8535C10 17.9474 9.98147 18.0404 9.94547 18.1272C9.90947 18.2139 9.85671 18.2927 9.79021 18.3591Z"
    />
</svg>