<svg width="10" height="11" viewBox="0 0 10 11" fill="none" xmlns="http://www.w3.org/2000/svg">
<path d="M4.93455 0.6875C5.29923 0.6875 5.64896 0.832366 5.90683 1.09023C6.16469 1.34809 6.30955 1.69783 6.30955 2.0625V3.4375H3.55955V2.0625C3.55955 1.69783 3.70442 1.34809 3.96228 1.09023C4.22014 0.832366 4.56988 0.6875 4.93455 0.6875ZM6.99705 3.4375V2.0625C6.99705 1.51549 6.77976 0.990886 6.39296 0.604092C6.00617 0.217298 5.48156 0 4.93455 0C4.38754 0 3.86294 0.217298 3.47615 0.604092C3.08935 0.990886 2.87205 1.51549 2.87205 2.0625V3.4375H1.74455C1.49765 3.43755 1.25897 3.52619 1.07187 3.68729C0.884781 3.8484 0.761696 4.07128 0.724991 4.31544L0.0189281 9.02688C-0.0176553 9.27134 -0.00107848 9.52082 0.0675277 9.75829C0.136134 9.99576 0.255155 10.2156 0.416472 10.4029C0.577789 10.5902 0.777606 10.7405 1.00229 10.8436C1.22698 10.9466 1.47124 11 1.71843 11H8.14999C8.39723 11.0001 8.64158 10.9468 8.86635 10.8438C9.09112 10.7408 9.29102 10.5905 9.45241 10.4032C9.6138 10.2159 9.73288 9.99598 9.80153 9.75845C9.87018 9.52093 9.88677 9.2714 9.85018 9.02688L9.14343 4.31544C9.10674 4.0714 8.98376 3.84861 8.79681 3.68752C8.60985 3.52643 8.37133 3.43772 8.12455 3.4375H6.99705ZM6.30955 4.125V5.15625C6.30955 5.24742 6.34577 5.33485 6.41024 5.39932C6.4747 5.46378 6.56214 5.5 6.6533 5.5C6.74447 5.5 6.83191 5.46378 6.89637 5.39932C6.96084 5.33485 6.99705 5.24742 6.99705 5.15625V4.125H8.12387C8.20616 4.12508 8.28569 4.15468 8.34802 4.20843C8.41034 4.26217 8.45131 4.33649 8.46349 4.41788L9.17024 9.12794C9.1923 9.27466 9.18244 9.42441 9.14133 9.56696C9.10023 9.70952 9.02884 9.84153 8.93206 9.95398C8.83527 10.0664 8.71536 10.1567 8.58051 10.2185C8.44566 10.2804 8.29905 10.3125 8.15068 10.3125H1.71843C1.57006 10.3125 1.42345 10.2804 1.2886 10.2185C1.15375 10.1567 1.03384 10.0664 0.937051 9.95398C0.840264 9.84153 0.768881 9.70952 0.727775 9.56696C0.686669 9.42441 0.676808 9.27466 0.698866 9.12794L1.40562 4.41788C1.41778 4.3366 1.45865 4.26238 1.52083 4.20865C1.58301 4.15492 1.66238 4.12525 1.74455 4.125H2.87205V5.15625C2.87205 5.24742 2.90827 5.33485 2.97274 5.39932C3.0372 5.46378 3.12463 5.5 3.2158 5.5C3.30697 5.5 3.39441 5.46378 3.45887 5.39932C3.52334 5.33485 3.55955 5.24742 3.55955 5.15625V4.125H6.30955Z" fill="black"/>
</svg>
