<svg width="43" height="38" viewBox="0 0 43 38" fill="none" xmlns="http://www.w3.org/2000/svg">
<g filter="url(#filter0_d_75_92)">
<path d="M29.2059 11.3103L29.3543 11.5327H29.6217H37.1928C37.7776 11.5327 38.2597 12.0064 38.2732 12.5882L38.2334 12.9458L34.2305 27.5549C34.2303 27.5558 34.23 27.5566 34.2298 27.5574C33.9087 28.6774 32.8823 29.5 31.6607 29.5H11.1128C9.88925 29.5 8.8657 28.6759 8.56023 27.5603L8.5602 27.5602L4.54545 12.9079L4.54186 12.8948L4.53757 12.8819C4.51168 12.8043 4.5 12.7183 4.5 12.6133C4.5 12.0201 4.98742 11.5327 5.58061 11.5327H13.1517H13.4189L13.5674 11.3106L20.4904 0.957599L20.4905 0.957611L20.493 0.953676C20.6868 0.657921 21.022 0.5 21.3867 0.5C21.7528 0.5 22.0905 0.659266 22.2839 0.943198C22.2843 0.943667 22.2846 0.944137 22.2849 0.944607L29.2059 11.3103ZM16.2318 10.751L15.6988 11.5327H16.6449H26.1286H27.0746L26.5417 10.751L21.7998 3.79631L21.3867 3.19041L20.9736 3.79631L16.2318 10.751ZM17.7255 20.5163C17.7255 22.5311 19.3719 24.1776 21.3867 24.1776C23.4015 24.1776 25.0479 22.5311 25.0479 20.5163C25.0479 18.5015 23.4015 16.8551 21.3867 16.8551C19.3719 16.8551 17.7255 18.5015 17.7255 20.5163Z" stroke="black" shape-rendering="crispEdges"/>
</g>
<defs>
<filter id="filter0_d_75_92" x="0" y="0" width="42.7734" height="38" filterUnits="userSpaceOnUse" color-interpolation-filters="sRGB">
<feFlood flood-opacity="0" result="BackgroundImageFix"/>
<feColorMatrix in="SourceAlpha" type="matrix" values="0 0 0 0 0 0 0 0 0 0 0 0 0 0 0 0 0 0 127 0" result="hardAlpha"/>
<feOffset dy="4"/>
<feGaussianBlur stdDeviation="2"/>
<feComposite in2="hardAlpha" operator="out"/>
<feColorMatrix type="matrix" values="0 0 0 0 0 0 0 0 0 0 0 0 0 0 0 0 0 0 0.25 0"/>
<feBlend mode="normal" in2="BackgroundImageFix" result="effect1_dropShadow_75_92"/>
<feBlend mode="normal" in="SourceGraphic" in2="effect1_dropShadow_75_92" result="shape"/>
</filter>
</defs>
</svg>
