<svg width="25" height="25" viewBox="0 0 25 25" fill="none" xmlns="http://www.w3.org/2000/svg">
<path d="M0 0.833333C0 0.61232 0.0877974 0.400358 0.244078 0.244078C0.400358 0.0877973 0.61232 0 0.833333 0H3.33333C3.51922 5.13525e-05 3.69975 0.0622511 3.84622 0.176708C3.99269 0.291165 4.09668 0.451306 4.14167 0.631667L4.81667 3.33333H24.1667C24.289 3.33345 24.4099 3.3605 24.5206 3.41258C24.6313 3.46467 24.7292 3.54049 24.8073 3.63467C24.8854 3.72886 24.9418 3.83908 24.9726 3.95753C25.0033 4.07597 25.0075 4.19973 24.985 4.32L22.485 17.6533C22.4493 17.8443 22.3479 18.0168 22.1985 18.1409C22.0491 18.2651 21.8609 18.3332 21.6667 18.3333H6.66667C6.47239 18.3332 6.28428 18.2651 6.13485 18.1409C5.98543 18.0168 5.88408 17.8443 5.84833 17.6533L3.35 4.345L2.68333 1.66667H0.833333C0.61232 1.66667 0.400358 1.57887 0.244078 1.42259C0.0877974 1.26631 0 1.05435 0 0.833333ZM5.17 5L7.35833 16.6667H20.975L23.1633 5H5.17ZM8.33333 18.3333C7.44928 18.3333 6.60143 18.6845 5.97631 19.3096C5.35119 19.9348 5 20.7826 5 21.6667C5 22.5507 5.35119 23.3986 5.97631 24.0237C6.60143 24.6488 7.44928 25 8.33333 25C9.21739 25 10.0652 24.6488 10.6904 24.0237C11.3155 23.3986 11.6667 22.5507 11.6667 21.6667C11.6667 20.7826 11.3155 19.9348 10.6904 19.3096C10.0652 18.6845 9.21739 18.3333 8.33333 18.3333ZM20 18.3333C19.1159 18.3333 18.2681 18.6845 17.643 19.3096C17.0179 19.9348 16.6667 20.7826 16.6667 21.6667C16.6667 22.5507 17.0179 23.3986 17.643 24.0237C18.2681 24.6488 19.1159 25 20 25C20.8841 25 21.7319 24.6488 22.357 24.0237C22.9821 23.3986 23.3333 22.5507 23.3333 21.6667C23.3333 20.7826 22.9821 19.9348 22.357 19.3096C21.7319 18.6845 20.8841 18.3333 20 18.3333ZM8.33333 20C8.77536 20 9.19928 20.1756 9.51184 20.4882C9.8244 20.8007 10 21.2246 10 21.6667C10 22.1087 9.8244 22.5326 9.51184 22.8452C9.19928 23.1577 8.77536 23.3333 8.33333 23.3333C7.89131 23.3333 7.46738 23.1577 7.15482 22.8452C6.84226 22.5326 6.66667 22.1087 6.66667 21.6667C6.66667 21.2246 6.84226 20.8007 7.15482 20.4882C7.46738 20.1756 7.89131 20 8.33333 20ZM20 20C20.442 20 20.8659 20.1756 21.1785 20.4882C21.4911 20.8007 21.6667 21.2246 21.6667 21.6667C21.6667 22.1087 21.4911 22.5326 21.1785 22.8452C20.8659 23.1577 20.442 23.3333 20 23.3333C19.558 23.3333 19.134 23.1577 18.8215 22.8452C18.5089 22.5326 18.3333 22.1087 18.3333 21.6667C18.3333 21.2246 18.5089 20.8007 18.8215 20.4882C19.134 20.1756 19.558 20 20 20Z" fill="black"/>
</svg>
